<svg width="1400" height="1200" viewBox="0 0 1400 1200" fill="none" xmlns="http://www.w3.org/2000/svg">
  <rect width="1400" height="1200" fill="#ECE3D8"/>
  <rect x="0" y="0" width="820" height="1200" fill="#9B6E49"/>
  <rect x="40" y="0" width="10" height="1200" fill="#7E5435" opacity="0.8"/>
  <rect x="92" y="0" width="8" height="1200" fill="#7E5435" opacity="0.55"/>
  <rect x="140" y="0" width="10" height="1200" fill="#7E5435" opacity="0.8"/>
  <rect x="190" y="0" width="8" height="1200" fill="#7E5435" opacity="0.55"/>
  <rect x="240" y="0" width="10" height="1200" fill="#7E5435" opacity="0.8"/>
  <rect x="292" y="0" width="8" height="1200" fill="#7E5435" opacity="0.55"/>
  <rect x="340" y="0" width="10" height="1200" fill="#7E5435" opacity="0.8"/>
  <rect x="392" y="0" width="8" height="1200" fill="#7E5435" opacity="0.55"/>
  <rect x="440" y="0" width="10" height="1200" fill="#7E5435" opacity="0.8"/>
  <rect x="492" y="0" width="8" height="1200" fill="#7E5435" opacity="0.55"/>
  <rect x="540" y="0" width="10" height="1200" fill="#7E5435" opacity="0.8"/>
  <rect x="592" y="0" width="8" height="1200" fill="#7E5435" opacity="0.55"/>
  <rect x="640" y="0" width="10" height="1200" fill="#7E5435" opacity="0.8"/>
  <rect x="692" y="0" width="8" height="1200" fill="#7E5435" opacity="0.55"/>
  <rect x="740" y="0" width="10" height="1200" fill="#7E5435" opacity="0.8"/>
  <rect x="792" y="0" width="8" height="1200" fill="#7E5435" opacity="0.55"/>
  <rect x="820" y="0" width="580" height="1200" fill="#D2C2B4"/>
  <rect x="920" y="160" width="360" height="840" rx="20" fill="#C6B3A3"/>
  <rect x="875" y="320" width="300" height="420" fill="#C7B7A8"/>
  <rect x="905" y="350" width="240" height="150" rx="6" fill="#B8A393"/>
  <rect x="905" y="520" width="240" height="180" rx="6" fill="#B29D8E"/>
  <rect x="1010" y="625" width="60" height="18" rx="9" fill="#8D7666"/>
  <rect x="1025" y="478" width="60" height="18" rx="9" fill="#8D7666"/>
  <rect x="1140" y="120" width="260" height="980" fill="#E8DDD4"/>
  <rect x="1165" y="165" width="220" height="145" rx="30" fill="#F5F0EA"/>
  <rect x="1160" y="290" width="225" height="470" rx="70" fill="#E9DED2"/>
  <rect x="1165" y="680" width="220" height="220" fill="#C2A88F"/>
  <circle cx="975" cy="255" r="52" fill="#E9DED3"/>
  <path d="M955 220C990 185 1018 195 1032 225" stroke="#5D7D4A" stroke-width="8" stroke-linecap="round"/>
  <path d="M945 260C975 230 1005 235 1022 272" stroke="#5D7D4A" stroke-width="8" stroke-linecap="round"/>
</svg>
